<?xml version="1.0" encoding="UTF-8"?><svg id="a" xmlns="http://www.w3.org/2000/svg" viewBox="0 0 217.24 299.916"><path d="M108.716,1c47.09,0,85.4,38.058,85.4,84.837v190.678H23.316V85.837C23.316,39.058,61.626,1,108.716,1M108.716,0C61.076,0,22.316,38.501,22.316,85.837v191.678h172.8V85.837C195.116,38.501,156.356,0,108.716,0h0Z"/><path d="M108.641,9.405c20.396,0,39.625,7.954,54.144,22.397,14.511,14.435,22.6,33.638,22.778,54.1.008.215.008.437.008.659v189.927H31.711V86.56c0-.222,0-.445.008-.686.177-20.433,8.267-39.636,22.781-54.072,14.52-14.443,33.748-22.397,54.141-22.397M108.641,8.405c-42.732,0-77.551,34.681-77.921,77.46-.008.226-.008.461-.008.695v190.927h155.859V86.56c0-.234,0-.469-.008-.695-.371-42.779-35.181-77.46-77.921-77.46h0Z"/><path d="M30.719,85.868h-.008v.695c0-.234,0-.469.008-.695h0Z"/><path d="M186.57,85.868h-.008c.008.226.008.461.008.695v-.695h0Z"/><path d="M108.716,19.4c37.698,0,68.368,30.666,68.368,68.36v180.84H40.348V87.76c0-37.694,30.67-68.36,68.368-68.36M108.716,18.4c-38.312,0-69.368,31.056-69.368,69.36v181.84h138.736V87.76c0-38.304-31.056-69.36-69.368-69.36h0Z"/><path d="M216.74,277.136v3.816c-13.248,5.048-19.176,8.832-27.336,18.464l-80.784-.08-80.784.08c-8.16-9.632-14.088-13.416-27.336-18.464v-3.816h216.24Z" fill="none" stroke="#000" stroke-miterlimit="10"/><line x1="108.78" y1="18.921" x2="108.78" y2="269.079" fill="none" stroke="#000" stroke-miterlimit="10"/><line x1="40.216" y1="88.173" x2="177.894" y2="88.173" fill="none" stroke="#000" stroke-miterlimit="10"/><line x1="39.538" y1="146.187" x2="177.702" y2="146.187" fill="none" stroke="#000" stroke-miterlimit="10"/><line x1="39.707" y1="210.987" x2="177.877" y2="210.987" fill="none" stroke="#000" stroke-miterlimit="10"/></svg>