<?xml version="1.0" encoding="UTF-8"?><svg id="a" xmlns="http://www.w3.org/2000/svg" xmlns:xlink="http://www.w3.org/1999/xlink" viewBox="0 0 217.24 299.916"><defs><clipPath id="c"><rect y="0" width="217.24" height="299.916" fill="none"/></clipPath><clipPath id="d"><rect y="0" width="217.24" height="299.916" fill="none"/></clipPath></defs><g id="b"><g clip-path="url(#c)"><g clip-path="url(#d)"><path d="M108.716,1c47.09,0,85.4,38.058,85.4,84.837v190.678H23.316V85.837C23.316,39.058,61.626,1,108.716,1M108.716,0C61.076,0,22.316,38.501,22.316,85.837v191.678h172.8V85.837C195.116,38.501,156.356,0,108.716,0"/><path d="M108.716,19.4c37.698,0,68.368,30.666,68.368,68.36v180.84H40.348V87.76c0-37.694,30.67-68.36,68.368-68.36M108.716,18.4c-38.312,0-69.368,31.056-69.368,69.36v181.84h138.736V87.76c0-38.304-31.056-69.36-69.368-69.36"/><path d="M216.74,277.136v3.816c-13.248,5.048-19.176,8.832-27.336,18.464l-80.784-.08-80.784.08c-8.16-9.632-14.088-13.416-27.336-18.464v-3.816h216.24Z" fill="none" stroke="#000" stroke-miterlimit="10"/><line x1="108.78" y1="18.921" x2="108.78" y2="269.079" fill="none" stroke="#000" stroke-miterlimit="10"/><line x1="40.216" y1="88.173" x2="177.894" y2="88.173" fill="none" stroke="#000" stroke-miterlimit="10"/><line x1="39.538" y1="146.187" x2="177.702" y2="146.187" fill="none" stroke="#000" stroke-miterlimit="10"/><line x1="39.707" y1="210.987" x2="177.876" y2="210.987" fill="none" stroke="#000" stroke-miterlimit="10"/></g></g></g></svg>