<?xml version="1.0" encoding="UTF-8"?><svg id="a" xmlns="http://www.w3.org/2000/svg" width="259.2" height="354.494" viewBox="0 0 259.2 354.494"><path d="M47.36,299.726h-1V109.914c0-46.843,37.383-84.952,83.333-84.952v1c-45.398,0-82.333,37.661-82.333,83.952v189.812Z"/><path d="M213.019,299.726h-1V109.914c0-46.292-36.931-83.952-82.326-83.952v-1c45.946,0,83.326,38.109,83.326,84.952v189.812Z"/><path d="M204.722,110.088c.25-20.107-8.202-40.168-23.186-55.04-14.286-14.179-33.244-22.104-51.926-21.722v.013c-18.71-.374-37.606,7.541-51.892,21.715-14.989,14.872-23.441,34.923-23.19,54.986-.014.375-.012,59.74-.008,131.42.001,30.572.003,55.216,0,58.266h1c.002-3.049,0-27.692,0-58.266-.003-55.15-.007-130.681.008-131.408-.247-19.818,8.098-39.605,22.895-54.288,14.1-13.99,32.752-21.82,51.188-21.425l.01-.506.01.493c18.482-.377,37.107,7.444,51.202,21.432,14.793,14.682,23.136,34.48,22.892,54.365.058,1.029.032,59.144.009,110.416-.017,38.744-.033,75.34-.008,79.19l1-.006c-.025-3.848-.009-40.441.008-79.184.035-77.679.04-110.205-.011-110.452Z"/><rect x="99.15" y="64.38" width="1.005" height="66.867" transform="translate(-31.775 144.984) rotate(-64.21)"/><rect x="112.018" y="49.025" width="1.006" height="68.025" transform="translate(-26.562 68.468) rotate(-30.446)"/><rect x="126.431" y="97.336" width="66.753" height="1.005" transform="translate(-26.65 79.285) rotate(-25.794)"/><rect x="113.063" y="82.605" width="67.954" height="1.006" transform="translate(.696 167.436) rotate(-59.427)"/><path d="M196.5,292.718H62.886V111.948c0-37.851,29.97-68.645,66.807-68.645s66.807,30.794,66.807,68.645v180.77ZM63.886,291.718h131.614V111.948c0-37.299-29.521-67.645-65.807-67.645s-65.807,30.345-65.807,67.645v179.77Z"/><path d="M208.185,322.44h-.238c-38.813-.078-117.893-.078-156.695,0h-.238s-.151-.183-.151-.183c-7.691-9.332-13.1-13.086-26.307-18.258l-.319-.126v-4.649h210.727v4.649l-.319.126c-13.207,5.172-18.616,8.926-26.307,18.258l-.151.184ZM129.597,321.377c29.354,0,58.707.019,78.116.056,7.593-9.174,13.314-13.153,26.245-18.245v-2.958H25.243v2.958c12.931,5.092,18.652,9.071,26.245,18.245,19.405-.037,48.755-.056,78.109-.056Z"/><rect x="129.253" y="43.804" width="1.006" height="248.414"/><rect x="63.386" y="111.857" width="132.614" height="1.006"/><rect x="63.386" y="169.687" width="132.614" height="1.006"/><rect x="63.386" y="234.283" width="132.614" height="1.006"/></svg>